<svg width="16" height="16" viewBox="0 0 16 16" fill="none" xmlns="http://www.w3.org/2000/svg">
<path d="M3.47601 9.68134C3.47601 9.68134 6.47935 12.6827 7.64868 13.8513C7.74601 13.9493 7.87401 13.998 8.00201 13.998C8.13001 13.998 8.25801 13.9493 8.35535 13.8513C9.52468 12.6833 12.5213 9.68867 12.5213 9.68867C12.6173 9.59267 12.6653 9.46601 12.666 9.34001C12.666 9.21134 12.6167 9.08267 12.5187 8.98401C12.3233 8.78867 12.008 8.78801 11.814 8.98134L8.50201 12.2933V2.49867C8.50201 2.22267 8.27801 1.99867 8.00201 1.99867C7.72601 1.99867 7.50201 2.22267 7.50201 2.49867V12.2933L4.18268 8.97467C3.99001 8.78201 3.67535 8.78334 3.48001 8.97867C3.38135 9.07734 3.33201 9.20601 3.33268 9.33467C3.33268 9.46067 3.38001 9.58601 3.47601 9.68134Z" fill="white"/>
</svg>
