<svg xmlns="http://www.w3.org/2000/svg" xmlns:xlink="http://www.w3.org/1999/xlink" viewBox="0 0 32 48"><path d="M 22.213 0.02 C 22.289 -0.001 22.369 -0.005 22.447 0.006 L 23.803 0.006 C 23.943 0.006 24.082 0.032 24.212 0.085 C 24.342 0.138 24.461 0.216 24.56 0.315 C 24.66 0.413 24.738 0.53 24.79 0.66 C 24.841 0.789 24.865 0.928 24.859 1.068 L 24.859 20.55 L 26.789 20.55 C 27.667 20.55 28.106 21.047 28.106 22.04 L 28.106 22.484 C 28.112 22.562 28.101 22.64 28.074 22.713 C 28.048 22.786 28.006 22.853 27.952 22.909 C 27.84 23.01 27.692 23.062 27.542 23.054 L 22.447 23.054 C 22.297 23.069 22.147 23.026 22.027 22.933 C 21.941 22.807 21.902 22.655 21.916 22.504 L 21.916 0.556 L 21.892 0.556 C 21.877 0.405 21.916 0.252 22.003 0.127 C 22.065 0.077 22.136 0.041 22.213 0.02 Z M 16.904 0.607 L 18.892 22.523 C 18.9 22.579 18.9 22.636 18.892 22.692 C 18.897 22.743 18.89 22.794 18.871 22.842 C 18.853 22.89 18.823 22.933 18.785 22.967 C 18.673 23.037 18.541 23.067 18.409 23.054 L 16.962 23.054 C 16.677 23.054 16.404 22.943 16.199 22.745 C 16.091 22.65 16.004 22.534 15.943 22.403 C 15.883 22.273 15.85 22.131 15.847 21.987 L 15.693 19.305 L 13.97 19.305 L 13.816 22.012 C 13.8 22.306 13.668 22.582 13.449 22.779 C 13.247 22.969 12.98 23.076 12.702 23.078 L 11.278 23.078 C 11.145 23.087 11.012 23.06 10.892 23.001 C 10.853 22.969 10.823 22.928 10.803 22.882 C 10.784 22.836 10.776 22.785 10.781 22.735 C 10.772 22.673 10.772 22.61 10.781 22.547 L 12.798 0.605 C 12.796 0.514 12.813 0.424 12.849 0.341 C 12.885 0.257 12.938 0.183 13.005 0.122 C 13.163 0.03 13.345 -0.011 13.527 0.006 L 16.175 0.006 C 16.362 -0.008 16.548 0.037 16.706 0.137 C 16.771 0.199 16.822 0.274 16.856 0.357 C 16.888 0.436 16.905 0.521 16.904 0.607 Z M 2.98 20.55 L 3.945 20.55 C 4.186 20.549 4.419 20.458 4.596 20.294 C 4.676 20.219 4.739 20.128 4.783 20.028 C 4.827 19.928 4.85 19.82 4.852 19.71 L 4.852 13.675 C 4.866 13.407 4.808 13.14 4.683 12.903 C 4.613 12.779 4.51 12.676 4.386 12.606 C 4.262 12.536 4.121 12.502 3.979 12.507 L 2.98 12.507 Z M 2.961 10.138 L 3.974 10.138 C 4.116 10.144 4.256 10.11 4.38 10.04 C 4.503 9.97 4.605 9.867 4.673 9.743 C 4.802 9.506 4.862 9.239 4.847 8.971 L 4.847 3.35 C 4.846 3.241 4.823 3.133 4.78 3.033 C 4.737 2.932 4.675 2.842 4.596 2.766 C 4.41 2.594 4.164 2.502 3.911 2.51 L 2.961 2.51 Z M 0.114 22.933 C 0.028 22.807 -0.012 22.655 0.003 22.504 L 0.003 0.556 C -0.01 0.403 0.033 0.251 0.124 0.127 C 0.182 0.08 0.249 0.046 0.322 0.025 C 0.394 0.004 0.469 -0.002 0.543 0.006 L 3.974 0.006 C 4.541 -0.001 5.106 0.095 5.638 0.291 C 6.097 0.46 6.517 0.719 6.873 1.053 C 7.176 1.354 7.417 1.712 7.583 2.105 C 7.749 2.492 7.834 2.909 7.833 3.331 L 7.833 8.855 C 7.842 9.346 7.77 9.834 7.621 10.302 C 7.479 10.707 7.219 11.06 6.873 11.315 C 7.209 11.557 7.466 11.893 7.611 12.28 C 7.766 12.715 7.841 13.174 7.833 13.636 L 7.833 19.744 C 7.832 20.158 7.75 20.568 7.592 20.95 C 7.433 21.345 7.187 21.7 6.873 21.987 C 6.48 22.351 6.017 22.632 5.514 22.815 C 5.01 22.998 4.475 23.079 3.94 23.054 L 0.534 23.054 C 0.384 23.069 0.233 23.026 0.114 22.933 Z M 28.029 25.452 L 28.029 47.418 C 28.046 47.575 28.001 47.733 27.904 47.857 C 27.846 47.905 27.779 47.942 27.707 47.964 C 27.635 47.986 27.559 47.994 27.484 47.987 L 26.162 47.987 C 25.9 47.992 25.646 47.895 25.453 47.717 C 25.25 47.544 25.113 47.305 25.067 47.042 L 22.818 35.279 L 23.301 46.887 C 23.314 47.031 23.295 47.176 23.245 47.311 C 23.195 47.446 23.115 47.569 23.011 47.669 C 22.904 47.774 22.778 47.856 22.638 47.91 C 22.499 47.965 22.35 47.991 22.201 47.987 L 20.898 47.987 C 20.742 48.003 20.586 47.956 20.464 47.857 C 20.365 47.734 20.318 47.576 20.334 47.418 L 20.334 25.456 C 20.318 25.311 20.352 25.165 20.43 25.042 C 20.553 24.957 20.702 24.921 20.85 24.94 L 22.239 24.94 C 22.492 24.938 22.736 25.029 22.925 25.196 C 23.12 25.372 23.252 25.608 23.301 25.867 L 25.53 37.639 L 25.047 26.016 C 25.037 25.873 25.058 25.73 25.11 25.596 C 25.162 25.463 25.243 25.343 25.347 25.244 C 25.446 25.144 25.565 25.065 25.696 25.012 C 25.827 24.959 25.968 24.933 26.109 24.935 L 27.498 24.935 C 27.646 24.916 27.796 24.952 27.918 25.037 C 27.994 25.159 28.026 25.304 28.01 25.447 Z M 3.008 37.441 L 3.008 45.483 L 3.973 45.483 C 4.099 45.489 4.225 45.469 4.343 45.425 C 4.461 45.38 4.568 45.311 4.659 45.223 C 4.74 45.15 4.805 45.061 4.85 44.961 C 4.895 44.861 4.918 44.753 4.919 44.644 L 4.919 38.603 C 4.934 38.335 4.874 38.068 4.745 37.832 C 4.675 37.708 4.572 37.607 4.448 37.538 C 4.324 37.469 4.183 37.435 4.041 37.441 Z M 3.949 27.444 L 3.008 27.444 L 3.008 35.057 L 4.017 35.057 C 4.159 35.062 4.3 35.027 4.424 34.958 C 4.548 34.888 4.651 34.786 4.721 34.662 C 4.85 34.426 4.91 34.158 4.895 33.89 L 4.895 28.284 C 4.894 28.174 4.87 28.065 4.825 27.965 C 4.78 27.864 4.715 27.774 4.634 27.7 C 4.544 27.612 4.436 27.544 4.319 27.5 C 4.201 27.456 4.075 27.437 3.949 27.444 Z M 0.572 47.987 C 0.422 48.004 0.271 47.961 0.152 47.867 C 0.064 47.742 0.024 47.589 0.041 47.437 L 0.041 25.49 C 0.023 25.338 0.063 25.185 0.152 25.061 C 0.21 25.013 0.277 24.978 0.35 24.957 C 0.422 24.936 0.498 24.931 0.572 24.94 L 4.002 24.94 C 4.57 24.931 5.134 25.026 5.667 25.22 C 6.124 25.39 6.543 25.651 6.897 25.987 C 7.201 26.283 7.444 26.635 7.611 27.024 C 7.774 27.413 7.857 27.829 7.857 28.25 L 7.857 33.779 C 7.868 34.27 7.796 34.759 7.645 35.226 C 7.505 35.632 7.244 35.986 6.897 36.239 C 7.233 36.481 7.49 36.817 7.635 37.204 C 7.792 37.637 7.867 38.095 7.857 38.555 L 7.857 44.678 C 7.857 45.091 7.777 45.501 7.621 45.884 C 7.46 46.279 7.213 46.634 6.897 46.921 C 6.504 47.285 6.043 47.566 5.54 47.749 C 5.037 47.932 4.503 48.013 3.969 47.987 Z M 17.04 25.857 C 17.149 25.887 17.251 25.939 17.339 26.011 C 17.371 26.042 17.397 26.08 17.414 26.121 C 17.43 26.163 17.438 26.208 17.435 26.252 C 17.429 26.351 17.411 26.448 17.382 26.542 L 17.262 26.981 C 17.035 27.724 16.649 28.095 16.166 28.095 C 16.042 28.098 15.919 28.075 15.805 28.028 C 15.709 27.978 15.604 27.949 15.496 27.941 L 15.496 45.58 L 15.978 45.58 C 16.363 45.548 16.746 45.66 17.054 45.893 C 17.186 46.044 17.284 46.221 17.344 46.412 C 17.404 46.603 17.423 46.804 17.402 47.003 L 17.402 47.447 C 17.41 47.524 17.403 47.601 17.38 47.675 C 17.358 47.749 17.321 47.817 17.271 47.876 C 17.144 47.968 16.988 48.011 16.832 47.997 L 11.154 47.997 C 11.003 48.012 10.853 47.969 10.734 47.876 C 10.641 47.734 10.602 47.563 10.623 47.394 L 10.623 46.965 C 10.6 46.769 10.617 46.57 10.672 46.38 C 10.726 46.191 10.818 46.014 10.941 45.86 C 11.26 45.626 11.654 45.519 12.046 45.561 L 12.529 45.561 L 12.529 25.78 C 12.517 25.664 12.529 25.547 12.565 25.437 C 12.601 25.327 12.659 25.225 12.736 25.138 C 12.92 24.991 13.153 24.92 13.387 24.94 L 13.831 24.94 C 14.214 24.964 14.591 25.051 14.946 25.196 L 17.04 25.866 Z M 15.601 16.893 L 14.844 3.538 L 14.091 16.893 Z" fill="rgb(12,13,12)"></path></svg>