<?xml version="1.0" encoding="UTF-8"?>
<svg id="Layer_1" xmlns="http://www.w3.org/2000/svg" version="1.1" viewBox="0 0 32 48">
  <!-- Generator: Adobe Illustrator 29.1.0, SVG Export Plug-In . SVG Version: 2.1.0 Build 142)  -->
  <defs>
    <style>
      .st0 {
        fill: #fff;
      }
    </style>
  </defs>
  <path class="st0" d="M22.2,0c0,0,.2,0,.2,0h1.4c.1,0,.3,0,.4,0,.1,0,.2.1.3.2.1,0,.2.2.2.3,0,.1,0,.3,0,.4v19.5h1.9c.9,0,1.3.5,1.3,1.5v.4c0,0,0,.2,0,.2,0,0,0,.1-.1.2-.1.1-.3.2-.4.1h-5.1c-.1,0-.3,0-.4-.1,0-.1-.1-.3-.1-.4V.6h0c0-.2,0-.3.1-.4,0,0,.1,0,.2-.1ZM16.9.6l2,21.9c0,0,0,.1,0,.2,0,0,0,.1,0,.1,0,0,0,0,0,.1-.1,0-.2.1-.4,0h-1.4c-.3,0-.6-.1-.8-.3-.1,0-.2-.2-.3-.3,0-.1,0-.3,0-.4l-.2-2.7h-1.7l-.2,2.7c0,.3-.1.6-.4.8-.2.2-.5.3-.7.3h-1.4c-.1,0-.3,0-.4,0,0,0,0,0,0-.1,0,0,0,0,0-.1,0,0,0-.1,0-.2L12.8.6c0,0,0-.2,0-.3,0,0,0-.2.2-.2.2,0,.3-.1.5-.1h2.6c.2,0,.4,0,.5.1,0,0,.1.1.2.2,0,0,0,.2,0,.2ZM3,20.5h1c.2,0,.5,0,.7-.3,0,0,.1-.2.2-.3s0-.2,0-.3v-6c0-.3,0-.5-.2-.8,0-.1-.2-.2-.3-.3s-.3-.1-.4,0h-1v8ZM3,10.1h1c.1,0,.3,0,.4,0,.1,0,.2-.2.3-.3.1-.2.2-.5.2-.8V3.3c0-.1,0-.2,0-.3,0-.1-.1-.2-.2-.3-.2-.2-.4-.3-.7-.3h-1v7.6ZM.1,22.9c0-.1-.1-.3-.1-.4V.6c0-.2,0-.3.1-.4,0,0,.1,0,.2-.1C.4,0,.5,0,.5,0h3.4c.6,0,1.1,0,1.7.3.5.2.9.4,1.2.8.3.3.5.7.7,1.1.2.4.3.8.2,1.2v5.5c0,.5,0,1-.2,1.4-.1.4-.4.8-.7,1,.3.2.6.6.7,1,.2.4.2.9.2,1.4v6.1c0,.4,0,.8-.2,1.2-.2.4-.4.8-.7,1-.4.4-.9.6-1.4.8-.5.2-1,.3-1.6.2H.5c-.1,0-.3,0-.4-.1ZM28,25.5v22c0,.2,0,.3-.1.4,0,0-.1,0-.2.1,0,0-.1,0-.2,0h-1.3c-.3,0-.5,0-.7-.3-.2-.2-.3-.4-.4-.7l-2.2-11.8.5,11.6c0,.1,0,.3,0,.4,0,.1-.1.3-.2.4-.1.1-.2.2-.4.2-.1,0-.3,0-.4,0h-1.3c-.2,0-.3,0-.4-.1,0-.1-.1-.3-.1-.4v-22c0-.1,0-.3,0-.4.1,0,.3-.1.4-.1h1.4c.3,0,.5,0,.7.3.2.2.3.4.4.7l2.2,11.8-.5-11.6c0-.1,0-.3,0-.4,0-.1.1-.3.2-.4,0-.1.2-.2.3-.2.1,0,.3,0,.4,0h1.4c.1,0,.3,0,.4.1,0,.1.1.3,0,.4h0ZM3,37.4v8h1c.1,0,.3,0,.4,0,.1,0,.2-.1.3-.2,0,0,.1-.2.2-.3,0,0,0-.2,0-.3v-6c0-.3,0-.5-.2-.8,0-.1-.2-.2-.3-.3-.1,0-.3-.1-.4,0h-1ZM3.9,27.4h-.9v7.6h1c.1,0,.3,0,.4,0,.1,0,.2-.2.3-.3.1-.2.2-.5.2-.8v-5.6c0-.1,0-.2,0-.3,0-.1-.1-.2-.2-.3,0,0-.2-.2-.3-.2-.1,0-.2,0-.4,0ZM.6,48c-.2,0-.3,0-.4-.1,0-.1-.1-.3-.1-.4v-21.9c0-.2,0-.3.1-.4,0,0,.1,0,.2-.1,0,0,.1,0,.2,0h3.4c.6,0,1.1,0,1.7.3.5.2.9.4,1.2.8.3.3.5.6.7,1,.2.4.2.8.2,1.2v5.5c0,.5,0,1-.2,1.4-.1.4-.4.8-.7,1,.3.2.6.6.7,1,.2.4.2.9.2,1.4v6.1c0,.4,0,.8-.2,1.2-.2.4-.4.8-.7,1-.4.4-.9.6-1.4.8-.5.2-1,.3-1.6.2H.6ZM17,25.9c.1,0,.2,0,.3.2,0,0,0,0,0,.1,0,0,0,0,0,.1,0,0,0,.2,0,.3v.4c-.3.7-.7,1.1-1.2,1.1-.1,0-.2,0-.4,0,0,0-.2,0-.3,0v17.6h.5c.4,0,.8,0,1.1.3.1.2.2.3.3.5,0,.2,0,.4,0,.6v.4c0,0,0,.2,0,.2,0,0,0,.1-.1.2-.1,0-.3.1-.4.1h-5.7c-.2,0-.3,0-.4-.1,0-.1-.1-.3-.1-.5v-.4c0-.2,0-.4,0-.6,0-.2.1-.4.3-.5.3-.2.7-.3,1.1-.3h.5v-19.8c0-.1,0-.2,0-.3,0-.1,0-.2.2-.3.2-.1.4-.2.7-.2h.4c.4,0,.8.1,1.1.3l2.1.7h0ZM15.6,16.9l-.8-13.4-.8,13.4h1.5Z"/>
</svg>