<svg width="48" height="48" viewBox="0 0 48 48" fill="none" xmlns="http://www.w3.org/2000/svg">
<path fill-rule="evenodd" clip-rule="evenodd" d="M24 21.86L35.438 10.42C35.73 10.128 36.116 9.98199 36.5 9.98199C37.308 9.98199 38 10.63 38 11.48C38 11.866 37.854 12.25 37.562 12.544L26.122 23.982L37.56 35.42C37.854 35.714 38 36.098 38 36.482C38 37.336 37.302 37.982 36.5 37.982C36.116 37.982 35.73 37.836 35.438 37.544L24 26.106L12.562 37.544C12.27 37.836 11.884 37.982 11.5 37.982C10.698 37.982 10 37.336 10 36.482C10 36.098 10.146 35.714 10.44 35.42L21.878 23.982L10.438 12.544C10.146 12.25 10 11.866 10 11.48C10 10.63 10.692 9.98199 11.5 9.98199C11.884 9.98199 12.27 10.128 12.562 10.42L24 21.86Z" fill="white"/>
</svg>
