<svg xmlns="http://www.w3.org/2000/svg" width="240" height="137" fill="none"><path stroke="#fff" stroke-linecap="round" stroke-linejoin="round" d="m89.883 11.344-.021.15-.098.326-.094.175-.13.153-.174.108-1.07.093-.147.112-.11.19-.068.29-.066.866-.117.42-.179.362-.228.282-.266.183-.292.066-.303-.072-1.853-1.919-.248-.114-.198.059-.135.273-.399 2.31-.449.42-.155.216-.126.25-.072.28.018.59-.048.238-.098.198-.8.746-.15.201-.65 1.686-.498.314-.164.177-.123.216-.055.255.042.294 1.997 6.276 2.53 2.088.274 1.277-.242.17-.132.198-.105.216-.05.191-.038.255v.34l-.044.453-.121.43-.056.14-.054.11-.225.167-.29.154-1.033.863-.308.18-.21.09-.187-.017-.187-.05-.47-.215-.286-.052-.132.11-.033.22.05.225.164.491.056.213.016.217-.038.356-.005.19.043.18.132.394.05.186v.207l-.033.135-.17.255-.062.13-.076.231-.122.279-.28.421-.28.154-.276.058-.624-.043-1.001.083-.276.08-.297.194-.766.64-.259.126-.181.043-1.158-.433-2.797.479-.715-.089-.833-.302-.87-.17-1.482.048-.43.1-.275.13-.148.237-.082.24-.04.307-.006.235.046.353-.011.185-.072.207-.212.326-.274.112-.297.028-.479-.031-.336.134-2.104 1.32-.214.243-.222.303-.204.21-.396.314-.247.04-.27-.1-.23-.17-.287-.124-.302.026-3.383 1.761-.624.166h-.176l-.149-.048-.22-.109-.22-.057-.39-.006-.303.1-.259.157-.12.103-.333.349-1.518.99-2.077.861-.414.238-.198.222-.474.752-.34.818-.342.428-.413.28-.91.912-.352.18-.55.151-.448.231-.368.527-.755.54-.49-.005-1.596-.4-.326-.164-.225-.242-.387-.535-.33-.369-.413-.376-.744-.533-.265-.271-.11-.175.06-.222.066-.122.514-.67.143-.23.121-.248-.077-.452-.236-.605-.75-1.157-.27-.56-.11-.446.082-.26.067-.272.032-.292-.044-.571-.127-.707-.06-.652-.01-.37.065-1.2-.01-.471-.06-.479-.177-.733-.182-.358-.225-.263-.547-.3-1.001-.257-1.08-.055-.887-.184-.451-.336-.259-.344-.233-.475-.181-.234-.215-.165-2.318-.27-.606-.344-1.19-.993.774-.763.502-.595.232-1.014.23-2.267.294-.205.297-.072.294.064.275.207.312.092.33.029.334-.026.322-.09h.004l.007-.005 1.002-.345 1.87.109.874-.653.51-.924 1.18-3.158.69.063.577.403.59.262.745-.38.378-1.13.198-.354 1.331-.945.213-.23.022-.202.1-.07.432.16.19.215.5.84.235.294.792.389.66-.164.602-.548.616-.77.352-.198.213-.263.033-.337-.205-.447.59-.448.474-.611.139-.754-.41-.857 1.452-.878 1.61-.303 3.188.017.685-.136 1.35-.5.767-.078 1.628.182.639-.13 1.027-.642.216-.006.205-.072.243-.347.018-.295-.084-.393-.044-.474.15-.544.327-.402.3-.012.345.104.448-.066.363-.273.543-.694.382-.272.693-.15 1.299.168.682-.047 5.532-2.54.433-.405.65-.98.385-.38 1.276-.267 2.785.22 1.041-.884.213-1.398-.946-.549-1.31-.386-.906-.897.033-.59.301-.209.055-.113-.708-.287-1.2-.157-.414-.273.396-.573.5-1.62.85-.866 1.13-.18 1.32.433.269.244.187.313.23.307.386.209.393.009.994-.44 1.287.072.404-.21.308-.778.205.478.077.338.121.338.334.46.44.309.957.241.437.343.43.52.27.445.11.55-.065.844-.275.677-.426.807-.194.684.407.322 1.963-.815.43.009.19.635-.206.746-.601 1.412-.124 1.003Z"/><path stroke="#fff" stroke-linecap="round" stroke-linejoin="round" d="m89.881 11.345.172.42 1.233.348.507.28 1.357 1.032 1.317.295.77.029.573-.156.344-.397.338-.649.561-1.503.756.026 1.284-.36 4.054.3.073-.485-.044-1.948-.04-.16-.022-.215.033-.313.099-.191.348-.395.11-.284-.04-1.632-.539-.787-.576-.456-.151-.637h.004l.161-.192.18-.148.202-.096.201-.044.514-.375.165-.259.099-.463.675.62 1.798.396.301.555.418.413.499.247.399-.082.118-.572V3.5l.319-.736.459-.322.414.209.165.855.334.825 2.021.032.947.47.568.921-.036.543-.309.59-.249 1.033.106.797.331.99.418.927.378.609.708.568.642.283.539.446.426 1.051.011.545-.099.561-.03.533.227.462.443.14.06.02.393-.414.337-.596.33-.411 1.479-.125 2.852 1 .503 1.61 1.179 2.39.082.44-.063.316-.131.308-.09.426-.046.504.05 1.086.104.504.16.425.438.562.161.286.108.31.061.327.015.337-.021.34-.25 1.19.011.22.045.213 1.217 2.796.074.325.014.344-.057.373-.136.308-.201.164-.257.052-2.719-.48-.403-.274-.744-.794-.201-.105-.204-.036-.21.017-.915.313-.198.16-.112.297-.121 1.773-.081.394-.153.297-.212.177-.231.07-.248-.027-.258-.116-.53-.456-1.086-1.395-.68-.548-1.547-.626-.382.004-.346.143-1.536 1.731-.206.091-.222-.025-.241-.125-1.962-1.652-.567-.2-.202.005-.152.044-.106.06-.082.076-1.262-1.133-.375-.689-.313-1.635-.919.245-.239-.052-.263-.098-.216-.205-.676-.803-.187-.127-.182-.052-.849.06-.292-.138-.341-.286-.248-.037-.258.066-.404.185-.291-.009-.347-.144-.203-.011-.171.08-.132.162-.413.67-.206.255-.731.62-.226.254-.143.217-.374.746-.254.314-.297.265-.59.32-.27.186-.418.415-.314.238-1.3.617-1.438.961-3.183.83-.618.053-.308-.042-.099-.071-.082-.13-.045-.158-.016-.18-.022-.16-.027-.135-.067-.162-.071-.136-.16-.081-.248-.038-.544.038-.673-.11-1.582.038-.385.112-.275-1.277-2.529-2.088-1.996-6.276-.043-.294.055-.255.123-.216.164-.177.5-.314.649-1.686.149-.201.8-.746.098-.198.049-.237-.02-.592.073-.28.126-.25.155-.215.45-.42.399-2.31.135-.273.198-.059.247.114 1.853 1.92.303.071.292-.066.266-.183.228-.282.18-.362.116-.42.066-.867.069-.288.11-.191.146-.112 1.07-.093.174-.108.13-.153.094-.175.098-.327.022-.15ZM31.396 36.116l1.19.993.606.345 2.319.27.214.164.182.234.232.475.259.344.451.337.886.183 1.08.055 1.002.258.547.3.226.262.181.358.176.733.06.479.011.47-.065 1.202.01.369.06.653.128.706.044.572-.033.292-.066.273-.083.258.11.446.27.56.75 1.158.236.605.078.451-.121.248-.143.232-.514.67-.066.12-.06.223.11.174.264.271.744.534.413.376-.365.163-.236.239-.126.294-.036.33.034.343.086.338.248.577.025.204-.157.149-2.06.454-.137.144-.07.22-.017.278.03.32.417 1.635-.053.204-.134.144-.194.087-.48.012-.458-.18-1.269-1.431-2.448-.48-.164.036-.372.23-.764.84-3.287 1.79-.19.165-.14.28-.478 2.325-.152.194-.226.065-.573-.135-.952-.481-.119-.014-.281.078-.884.66-.13.03-.132-.028-.133-.078-.775-.813-2.756-.056-.235.126-1.072 1.257-.169.11-.507.085-.62-.066-1.047-.39-.196.01-.19.085-.962.97-.264.15-.335.059-1.68-.318-.22-.398-.507-.195-1.452-.853.04-.596.246-.742-.092-.805-.598-.569-1.306-.137-.543-.534h-.036L6.06 56.274l-.114-.35-.007-.502-.074-.564-.315-.544-.514-.445-.568-.328-.503-.46-.308-.835-.022-.827.25-1.256-.104-.831-.271-.657-.4-.617-.87-.955-1.753-1.095-.367-.657.444-.67.367-.24.238-.258.066-.71-.132-.79-.286-.492L0 41.336l.894.066 1.703.126.683.484.209.512-.011.951.14.432.395.35.518.16 1.02.025.253.14.117.2-.018.255-.157.312-.055.008-.048.017-.048.032-.045.04-.095.106-.033.111.037.123.091.129.62.626.155.21.146.36.062.322.037.286.426 1.523.36.56.604.077.496-.36v-.491l-.206-.591-.106-.686.11-.983.19-.52.701-.899.096-.878.29-.432.396-.278.403-.423 1.101-2.002.381-.378 1.043-.584.421-.379.129-.074.319.011.143-.077.077-.204-.022-.218-.048-.187-.007-.114.095-.25.074-.28.125-.276.264-.23.982-.843 1.431-.422 2.657-.198 1.896.344.462-.051.397-.382.785-1.217.455-.45.58-.21.568-.035.635.09.22-.087.499-.33.319-.067.297.09 3.287 2 1.214.07.287-.282Z"/><path stroke="#fff" stroke-linecap="round" stroke-linejoin="round" d="m15.897 63.976 1.68.317.336-.059.263-.15.963-.97.189-.085.196-.009 1.047.389.62.066.507-.085.169-.11 1.072-1.256.235-.126 2.756.055.775.814.133.078.132.028.13-.03.884-.66.282-.078.118.013.952.481.573.135.226-.065.152-.193.478-2.326.14-.28.19-.165 3.287-1.79.764-.84.372-.23.163-.035 2.45.48 1.269 1.43.458.18.479-.012.194-.087.134-.144.053-.205-.418-1.634-.029-.321.016-.278.071-.22.137-.144 2.06-.454.157-.149-.025-.203-.248-.578-.086-.338-.034-.343.036-.33.126-.294.236-.239.366-.162.33.368.386.535.226.242.325.164 1.596.4.491.004.754-.538.424 1.103.017.24-.017.296-.105.27-.142.29-.15.396.006.237.132.17.176.075.199.026.177-.01.386-.096.72-.402.182-.057.204.006.468.183.585.136.617.299 1.723 1.662.314.197.635.08.495-.048.48-.112.286-.025.352.026.668.188.385.178.308.204.93 1.024.242.208.2.11 1.183.362.226.145.148.202.034.214.077.249 1.861.95.315.333.15.262-.056.194-.022.238.011.233.061.279.346 1.175.04.267-.018.146-.038.097-.088.057-.148.07-.193.058-.343.034-.105.027-.077.08-.077.184-.011.237.022.474-.011.246-.033.213-.038.15-.447 1.12v.153l.022.193.083.326.038.234-.022.276-.352 1.213-.06.278-.012.325.05.142.088.078.347.14.253.147.088.187.005.166-.115.24-.88.987-.275.255-.272.136-1.04.258-.446.187-.402.253-.42.405-.192.26-.094.258.143.226.54.486.046.197-.057.16-.286.167-.215.18.006.074.458.28.088.142.022.135-.062.144-.21.18-.093.141-.033.195.083.42.143.198.178.122.159.054.176.087.237.168.314.369.137.27.066.305-.033 1.352.05.56.087.328.122.25.341.418.242.37.078.38v.318l-.104.53-.154.476-.068.152-.044.19.006.497.503 1.122.45 1.763.05.464-.033.271-.247 1.022-.061.84.077.67.193.957.043.463-.043.365-.15.334-.683 1.144-.32.699-.197.682-.144.382-.121.235-.17.145-.617.37-.143.132-.17.215-.044.21.01.178.199.518v.3l-.045.211-.11.202-.227.297-.127.212-.021.209.05.191.142.198.497.51.154.381-.027.203-.192.179-.29.104-.367.24-.32.312-.935 1.769-.343.468-.138.101-.154.03-.43-.087-.329.157-.374.424-.457 1.179-.128.784.018.583.058.313.034.268-.011.465-.103.319-.167.287-.765.755-.825 1.285-.773 1.641.044.505.002.015-.23-.049-.49.226-.338.593-.367.939-.83-.399-1.122-.805-1.02-.955-.51-.828-.021-1.514-.397-.94-1.508-1.535-1.078-1.444-.433-.374-.712-.274-2.146-.1-1.005-.587-.565-.909-.466-1.065-3.324-4.515-.44-.249-.008-.006-1.133-1.35-.161-.505-.048-.525-.198-.443-.616-.255-.998-1.058-.514-.415-.602-.323-1.357-.373-.488.154.158.7-.664.09-2.091-.307-.705-.255-.561-.582-1.163-2.603-.716-.74-1.636-.77-.693-.576-.404-.787-.176-.884-.103-1.787-.047-.919-.264-.214-.375.054-.4-.121-.385-.403-.279-.409-.223-.488-.228-.654-.143-.64-.165-1.21-.25-.592-.374-.412-.847-.466-.363-.44.025-.133.169-.43-.283-.138-.091-.073.3-.67-.025-.726-.294-.579-.491-.257-1.182-.565-.543-.37-.51-.462-.733-1.055-.367-.701-.176-.578.418-.823 1.468-.624.565-.572.114-.9.018-1.151.217-.775.712.219.26-.848.818-1.512.286-.84.109-1.063Z"/><path stroke="#fff" stroke-linecap="round" stroke-linejoin="round" d="m51.338 114.906-.001-.015-.044-.504.772-1.642.825-1.284.765-.755.167-.287.103-.32.011-.465-.033-.268-.059-.312-.017-.584.127-.784.457-1.179.375-.423.33-.157.428.087.155-.031.137-.101.343-.468.936-1.769.32-.311.367-.24.29-.105.192-.179.027-.203-.154-.381-.497-.509-.143-.199-.05-.19.022-.21.127-.212.227-.296.11-.202.044-.212v-.3l-.198-.518-.01-.177.043-.211.17-.215.144-.131.616-.37.17-.145.121-.236.144-.381.198-.683.32-.699.683-1.143.15-.334.043-.366-.044-.463-.192-.957-.078-.67.061-.84.247-1.021.034-.272-.05-.464-.45-1.762-.504-1.122 2.06-1.209.204-.025.166.042.413.287.198.067.744.027.236.053.198.073.2.146.644.37.297.036.37-.042.634-.33.193-.146.269-.138 1.713-.535.116-.09.088-.105.193-.628.17-.372.232-.192.396-.214.254-.045.271.03.357.195.435.344.21.069.66.052.458.16.942.036 2.07-.272.705-.288.64-.642.149-.102.17-.055.424-.08.569.004.423.11.187.1.116.121.131.356.072.143.077.082.1.04.136.022.171.064.127.089.149.176.07.127.172.25.078.076.089.067.104.055.16.057.27.024.362-.043 1.664-.934.292-.064.44-.02.474.118.59.327.666.088 3.944-.16.434.117-.033.164-.01.152.016.138.06.062.845.135.379-.05.385-.113.848-.533.519-.536.242-.112 1.15-.246.497-.394.226-.338.088-1.43.022-.17.033-.155.22-.449.148-.22.11-.13.435-.375.171-.06.137.031.195.207.253.347.116.118.187.108 1.05.321.195.166.121.207.022.146.017.353.181.113.358.033.683-.124.429.153.236.152.085.177.11.346.11.244.148.223.182.2.165.147.159.101.166.065.231-.033.505.54.147.243.089.257-.003.256-.126.243-.244.187-1.255.364-.204.139-.09.216.529 1.904.095.887-.029 1.001-.75 2.955-.008.383.092.333.155.261.587.57.1.143.066.19.024.262-.083 1.12.037.268.102.274.185.282 1.332 1.243.673.41.326.045.316-.103.61-.564.31-.109.306.03.571.332.794.776 1.021.679.936 1.246 1.425.929.155-.007.151-.106.621-.944.179-.128.197-.061.221.013 1.865.976.148.099.405.112 1.727.201.305.121.198.281.143.458.072.881.088.481.115.366.177.233 1.685 1.602.132.075.165.034.594-.106.16-.007 1.675.305.506-.036 1.377-.551.149-.033.121.008.132.09 1.686 1.662.226.299.066.193-.006.146-.093.128-.149.114-.182.097-.241.06-.784.05-.187.035-.093.092-.083.216-.039.238-.038.387-.077.263-.177.36-1.155 1.364-.15.215-.066.209-.077.432.029.221.048.136.066.024h.111l.122.05.11.132.154.366.132.241.22.152.247.056.562.044.415.09.17.108.16.154.176.277.032.191v.221l-.17.564-.542 1.364-.131.432-.149.323-.088.509-.002.014-.815-.317-1.753-1.52-.763-.437-1.578-.532-1.706-.869-.792-.226-1.662-.019-.176-.123-.147-.267-.179-.224-.272.003-.143.221-.088.724-.117.284-.492.591-.184.117-2.707.73-.704-.014.234-.769.015-.733-.15-.732-.261-.761-2.762-.226-1.974-.677-.778.1-.114.089-.055.182v.251l.033.292-.484 1.137-.015 1.535.147 1.648-.003 1.489-.752 3.369-.257.677-.059.375.07.339.154.425.157.347.078.097-.408.941-.719.066-1.834-.752-1.853-.255-.535.205-.21.511-.142.652-.356.629-.18 1.026-1.867 1.641-.672 1.089-.128 1.447.018 1.636-.18 1.391-.16.161-.551.551-.584-.038-.278-.35-.21-.503-.381-.505-.231-.051-.543.189-.275-.03-.114-.226-.004-.356-.044-.342-.227-.2-.547.044-1.064.512-.532.119-.418-.102-1.416-.742-.85-1.002-.518.358-.796 2.112-.562.577-1.845.794-.715.574-.28.11-.34.039-3.522-1.244-5.03-.564-1.207-.506-.297-.265-.612-.764-.154-.293-.165-.731.066-.155.201-.074.239-.501.106-.078.173.033.161-.05.066-.335-.091-.327-.213-.149-.246-.1-.18-.169-.227-.44-.59-.906-.313-.338-2.388-1.314-.778-.646-.645-.505-.675-.37-1.427-.383-.694-.718-1.713-3.416-.825-1.287-.5-.278-1.322-.209-.671-.317-.605-.604-.554-.84-.38-.982-.088-1.019-.646.072-.605-.334-.602-.482-.623-.382-.586-.124Zm70.978-99.601 4.25 1.488.403.27.47.72.26.253.375.119 2.949-.714.881.083.077.382.114.341 1.794 3.053.227.08.983-.028 2.102-.791.587.084.477.462.463.877.308.756.194.77-.081.664-.509.415-.07.181-.03.18.026.175.073.167 1.508-.276 2.201-2.131 1.497.153 1.122.859.54.254.598-.139.433-.545.257-.713.26-.56.459-.098 1.287.026 1.16.298 1.089.617 3.023 3.203.323 1.063-1.115.458.136.42v.185l-.099.155-.154.322-.055.282-.048.43.004.327.099-.032-.305.426-.73.722-.334.469-.609.135-1.137-.316-.558.181-.275.719-.531.457-.624.37-.547.457-.194.078-.327.207-.216.02.172.617.067.17-.708-.16-.279.88.333.994 1.152.204.459 1.432.169.32.455.368.26-.058.253-.22.415-.135h1.618l.337.106.25.516.025.516-.029.505.091.484.632.84 1.581.578.788.553.51.719.903 1.642.514.698.451.815 1.075 1.12.385 1.047.403 1.885.334.69.624.817-3.758-1.212-.185.095-.144.19-.107.269-.073.327-.054.75-.075.343-.208.265-3.672 1.747-.202.174-.149.242-.166.691-.132.304-.176.25-.211.199-.487.255-3.172.297-.551.223-.515.388-1.376-1.187-.41-.098-.167-.117-.562-.71-.137-.118-.31-.072-.402-.212-.422-.386-.352-.522-.264-.557-.214-.163-2.041-.408-.28-.208-.16-.296-.074-.354-.01-1.121-.036-.297-.105-.208-.196-.146-.985-.295-1.481.026-.333.166-2.26 2.221-.202.098-.149-.046-.147-.131-.139-.205-.249-.578-.328-1.424-.137-.184-.185-.077-1.763.517-.224.268-.164.35-.469 1.5-.172.217-.228.074-.273-.061-1.444-.987-.185-.06-1.086.322-.523-.006-1.385-.685-.54.043-.686.343-2.162 2.03-.273.022-1.957-.737.105-.155-.022-.228-.138-.345-.467-.695-.342-.412-.271-.27-.567-.393-.099-.128-.087-.174.011-.286.054-.165.578-.6.149-.22.044-.109.044-.126.022-.137-.071-.308-.546-1.572-.153-.589-.083-.455-.005-.749-.132-.947-.105-.313-.159-.322-.292-.267-.239-.101-.258-.019-1.453.19-.97-.233-.325-.025-.655.146-.249.02-.259-.025-.204-.079-.192-.211-.122-.295-.098-.636-.132-.437-.303-.49-.22-.213-.221-.146-1.757-.756-.094-.07-.076-.206-.05-.367.05-.817.115-.446.094-.268.308-.419.303-.556.121-.313.055-.456-.028-.545-.324-2.245-.072-.24-.116-.257-.241-.44-.094-.331.022-.44.121-.29.028-.029.115-.176.11-.197.011-.207-.071-.213.082-.076.106-.06.152-.045.202-.005.567.2 1.962 1.653.241.124.222.026.206-.091 1.536-1.732.347-.143.381-.003 1.547.626.68.548 1.086 1.395.53.456.259.116.247.027.231-.07.212-.177.153-.297.082-.394.121-1.774.111-.297.198-.16.915-.313.21-.017.204.037.201.105.744.794.403.273 2.719.48.257-.051.201-.164.136-.308.058-.373-.014-.345-.075-.325-1.217-2.795-.045-.214-.011-.22.25-1.19.022-.34-.016-.336-.061-.328-.108-.31-.161-.285-.438-.562-.16-.425-.103-.504-.051-1.086.046-.504.091-.427.13-.307.063-.316-.082-.44-1.179-2.39-.505-1.61ZM172.789 35.5l.525.315.822-.097 3.647 1.022.389.238.825.694.455.241.488.006 1.082-.224.414.126-.076.155.121.602.22.717.213.482.348.378 1.251.791.844.244 1.665-.049.734.313-.653.263.099.21.125.186.147.16.161.14-.044.722.07.701.246.57.473.357.385-1.012.785-.06.56 3.269-.035.257-.1.287-.152.287-.195.257-.225.2-.247.111-.255-.005-.493-.31-.216-.028-.196.078-.182.161-.817 1.2-2.876 1.603-.47.546-.173.335-.115.384-.076.84-.086.3-.361.584-.081.197-.024.25.403 1.627.012.263-.043.248-.117.238-2.113 2.962-.137.279-.092.298-.039.309.017.307.077.298.144.28.993.971.083.156.016.166-.064.186-1.019 1.333-.105.272-.068.31-.167 1.998.031.243.087.21.158.173.462.209 1.535.203.154.103.083.148.098.556.077.177.145.147 3.036 1.542.25.008.998-.546.25-.04.25.095 2.73 2.947.522.262 1.8.099.825-.64.191-.088.206.013 1.298.874.907.072 1.287-.426 1.024.49.824.707.158.248.058.239-.201 1.805.033.358.105.296.196.207.245.075.232-.049.649-.418.205-.068.201.046.199.21 1.086 2.277.235.247 1.119.522.948.822.381.485.132.292.158.604.066.69 1.012.26.453.355.532.613-.532 1.431-.516.128-.439-.042-.204-.105-.333-.386-.179-.138-.187-.072-.189.002-.183.077-.169.159-.147.245-.228.657-.13.215-.143.14-.439.244-.13.12-.111.186-.077.246-.036.268.012.532.1.588-.955.425-3.118-.63-.54-.023-.402.052-.43.17-.133.113-.066.158.051.22.232.55.088.348v.242l-.072.225-.115.166-.155.153-.216.089-.253.038-2.528-.05-.275.068-.612.253-.463.263-.181.15-.149.186-.171.303-.164.362-.176.301-.22.194-.21.073-.365-.071-1.524-.687-.313-.062-.75-.409-.876-.749-.546-.205-.222-.025-.666-.087-.147.874-.055.93.286.928.307.384-.318.654-.121.153-1.213 1.169-.192.244-.17.267-.116.129-.16.078-.115.009-.144-.028-2.312.057-.247.072-.16.195-.097.28-.156.998-.089.263-.149.173-.178.061-.157-.028-.138-.092-.114-.132-.157-.281-.036-.088.028-.096.039-.255.014-.31-.062-.395-.422-.981-.666-.99-.723-.696-1.327-.413-.591-.346-.202-.245-.109-.302.054-1.062-.047-.275-.086-.234-.118-.199-1.649-1.604-.178-.292-.12-.277-.238-1.27-.317-.823-.434-.688-.252-.225-1.385-.575-.349-.018-.301.076-.229.19-.132.327-.064.651.024.233.053.189.647 1.081.251.642.085.349.036.35-.028.334-.105.306-.414.648-.572.633-.314.236-.315.14-.303.014-1.93-1.497-.174-.279-.028-.264.156-.243.23-.237.168-.25.109-.266.055-.28.003-.294-.045-.31-.881-2.25-.093-.366-.018-.307.077-.224.399-.196.094-.116-.001-.149-.085-.175-1.514-1.505-.482-.816-.134-.382-.03-.318.099-.217.252-.08 1.128.269.216-.059.192-.21.167-.411.142-.664.355-.37.214-.824.099-1.095.083-.39 1.095-1.134-.264-1.858-.353-.531-.572-.218-.182-.196-.131-.306-.094-.922-1.471-2.984-.567-.855-.204-.4-.073-.463.056-.433.574-1.234-.05-1.32.033-1.482-.033-.333-.264-1.051-.144-1.229-.066-.27-.099-.252-.248-.424-.023-.262.116-.296.607-.35.131-.05.216-.146.726-.782 1.091-.78.16-.152.099-.197.054-.216-.027-.372-.044-.195-.226-.596.05-.578.892-2.997 1.344-3.428.398-.101.334-.297.59-.82.426-.295.311-.011.657.234.319-.023.088-.203-.007-.669.099-.151.521.008.212.146.165.335.378.566.43.163.227-.472-.07-.73-.462-.611-.051-1.345-.374-.993-.646-.71-.866-.507-.664-.685-.348-1.074-.264-1.181-.404-1.016-1.137-1.678-.004-.775.965-.586.811.103 1.001.6Z"/><path stroke="#fff" stroke-linecap="round" stroke-linejoin="round" d="m160.019 51.72 1.221 1.126 1.49.773 1.442-.105 1.093-1.492.789-.571.433-.614.385-.748.638-.965.796-.683.705-.102.712.048.431-.11-1.345 3.428-.891 2.997-.05.579.226.595.044.195.027.372-.055.217-.098.196-.16.152-1.091.78-.726.782-.216.145-.132.051-.606.35-.116.296.022.262.249.424.099.252.066.27.144 1.229.263 1.05.034.334-.034 1.482.05 1.32-.574 1.234-.055.433.073.464.204.4.567.854 1.471 2.984.093.922.132.306.182.196.572.218.353.531.263 1.858-1.095 1.134-.082.39-.099 1.095-.215.825-.354.37-.385.084-1.779-.9-.831-.291-.886-.082-1.196.086-.324-.038-.443-.214-.269-.07-1.895.007-.308.128-.182.24-.044.458-.066.357-.115.223-.314.26-4.208.409-.855-.077-.693-.213-1.455-.938-1.249-.456-.38-.271-.25-.36-.225-.407-.319-.399-.463-.39-1.333-.885-1.046-.525-.717-.216-.913-.043-.765.075-.387-.087-.265-.19-.115-.242-.105-.28-.252-.256-.397-.218-.816-.173-.528-.188-.479-.241-.498-.34-.241-.099-.215-.003-.149.136-.082.141-.17.442-.127.215-.165.125-.396.143-.171.095-.547.621-.346.218-.331.004-.391-.109-.483-.209-.309.028-.254.13-.899-.24-.559-1.134-.486-.655-.578-.461-.919-.448-.137-.136-.086-.189-.077-.552-.128-.25-.19-.213-.493-.308-.952-.227-1.619-1.265-.62-.171-2.706.218-.206-.11-.376-.418-.915-1.492-.684-.806-1.537-1.02.05-.44.143-.567.176-.52.083-.322.04-.3.023-1.1.021-.238.044-.16.094-.198.077-.276-.049-.271-.332-.395-.259-.214-.247-.127-.468-.134-.287-.205-1.294-1.246-.248-.162-1.207-.393-.832-.538-.258-.262-.407-.652.172-.268.657-.319.723-.182.315.014.067-.567.016-.194-.011-.19-.133-.625-.04-.278v-.29l.04-.184.083-.163.584-.566 1.957.736.273-.02 2.162-2.03.686-.344.539-.043 1.386.684.522.007 1.087-.323.184.061 1.444.986.274.062.227-.074.173-.217.468-1.5.164-.35.224-.269 1.763-.517.186.078.136.184.328 1.424.249.578.14.205.146.13.149.047.202-.098 2.26-2.22.333-.167 1.482-.026.984.295.196.145.105.21.037.295.009 1.122.074.354.161.296.28.208 2.04.407.214.164.264.557.353.522.421.386.402.212.311.072.136.117.562.711.168.117.409.098 1.376 1.187.516-.388.55-.223 3.173-.297.486-.256.211-.198.176-.25.133-.304.165-.691.149-.242.203-.174 3.672-1.747.207-.265.076-.343.054-.75.072-.327.107-.269.144-.19.185-.095 3.758 1.213Zm50.933 4.598.503.126 2.073 1.355-.231 1.016.462.535 2.267.43.539.298 1.119.964.418.188.833.174.422.313.151.3.246.853.198.373.704.576.514-.102.994-.866-.04-.094-.048-.063-.062-.03h-.077l1.43-.177 1.373.489 2.637 1.457.826-.003 1.398-.894.524.318.22.996-.088.844.154.672.943.508-.976 1.132.015 1.472.616 1.666.837 1.721.355 1.593.224.41.473.331 1.094.097.506.152.462.38.697.822.448.268.517-.042.554-.24.554-.097.532.396.147.427.238 1.881.165.525.418.954.158.495.51 2.326.103 1.127-.151.91-1.453.04-.663.253-1.457 1.34-.994.057-1.027-.316-1.163-.585-.246-.05-.246.05-1.012.535-1.57-.228-.73.462-.184.447-.088 1.013-.18.479-.293.298-1.167.627-1.511 1.85-.796.523-1.035-.233-.022.659-.392-.01-.203-.084-.196-.149-.172-.229-.128-.328-.282-1.555-.106-.348-.154-.306-.22-.254-.61-.386-.239-.27-.74-1.583-.177-.196-.61-.233-2.696.043-.241-.089-1.069-.759-.333-.136-5.535.547-.299-.063-.249-.13-.196-.2-.14-.27-.147-.675-.099-.23-.124-.149-.142-.084-1.564-.025-.532-.614-.453-.355-1.012-.258-.066-.69-.158-.606-.132-.291-.381-.485-.949-.823-1.118-.521-.235-.247-1.086-2.278-.2-.21-.201-.046-.204.069-.649.418-.233.05-.244-.076-.196-.207-.106-.296-.033-.358.202-1.805-.058-.24-.158-.248-.824-.707-1.024-.49-1.287.426-.908-.07-1.298-.875-.206-.013-.191.087-.825.64-1.799-.098-.523-.262-2.729-2.948-.25-.094-.25.04-.998.546-.25-.008-3.037-1.543-.145-.147-.076-.176-.099-.557-.082-.147-.155-.104-1.535-.202-.461-.21-.159-.173-.086-.21-.031-.242.167-1.998.067-.31.106-.273 1.019-1.333.063-.185-.015-.166-.083-.156-.994-.972-.143-.279-.077-.298-.017-.308.039-.308.092-.298.137-.28 2.113-2.962.116-.238.044-.247-.012-.263-.403-1.627.024-.25.081-.197.36-.585.087-.299.075-.84.115-.384.174-.336.47-.545 2.876-1.604.817-1.199.181-.16.197-.08.216.029.492.31.256.005.247-.112.225-.2.195-.257.152-.286.1-.287.035-.258-.56-3.269.774.627.33 1.03.18.12.191.043.187-.04.184-.123 1.041-1.265 1.692-.155 3.173.561.822-.215.609-.498 1.053-1.457.198-.452.092-.378.231-.15.602.224.198.186.653.883.088.126.018.148-.025.166-.081.175-.385 1.036-.07.506.081.558.374.372.554 1.023-.334.838-.719.623-1.511.905-.947.372-1.713.066-.389.196-.26.557.073.403 1.725 2.183.554.25.359-.065.301-.174.378-.088.466.125.965.48.499.105.014.054.008.051-.008.043-.014.04-.331.282-.113.302.109.317.334.333.393.47.242.61.198.68.279.658.4.553 2.3 2.288 1.291.273 1.292-.393 1.045-.933.646-.168 1.424-.043 1.155-.344.18-.242-.062-.55-.25-.38-.304-.01-.283.089-.187-.08-.158-1.247.587.147Z"/><path fill="#fff" d="m123.1 118.5.002-.013.088-.509.149-.323.131-.432.542-1.364.171-.564v-.221l.099-.246.163-.149.209-.055.242.041.259.135.26.226.67 1.06.208.117.201-.043.185-.152.287-.423.112-.234.246-.298.372-.294.225-.09.241-.015.248.09 1.065.926.207.069.22-.03 2.568-2.33.998-.455 1.23.118.23-.118.175-.233.18-.757.138-.256.173-.151.188-.07.334.006.148.044.916-1.137.263-.144.235.022.183.247.156.325.171.228.186.148.425.119 1.063-.044.22-.089.632-.475.158-.041 2.449.402.368-.13.295-.24.734-1.094.145-.131 2.497-.803.775-.949.246-.531.058-.26.002-.252-.064-.236-.286-.696-.047-.243.003-.253.068-.264.149-.278.497-.599.158-.296.075-.282-.002-.26-.07-.232-.131-.197-.185-.153-.442-.225-.147-.2-.087-.261-.036-.307.052-.682.164-.664.128-.252.171-.163.749-.3.109-.116.041-.186-.023-.203-.058-.165-.25-.458-.062-.203-.027-.26.021-.338.079-.371.131-.348.373-.604.447-.452 3.096-1.89.142-.265.038-.327-.044-.375-.668-2.091-.071-.392-.08-2.482-.206-.729.014-.253.098-.182.162-.121 1.062-.19.141-.171.102-.252.059-.307.016-.336-.03-.338-.077-.314-.125-.264-.977-.971-.091-.237.006-.286.442-1.088.166-.631.079-.605.855.076 4.207-.41.314-.258.115-.224.067-.357.043-.458.182-.24.308-.128 1.895-.007.27.07.442.214.324.038 1.197-.086.886.082.83.29 1.779.901.386-.084-.143.663-.167.412-.192.21-.216.058-1.128-.27-.252.08-.099.218.03.318.134.383.482.815 1.515 1.505.084.175.002.149-.095.116-.399.197-.077.224.019.306.092.367.881 2.25.045.309-.003.294-.054.28-.11.266-.167.25-.231.237-.156.243.029.264.173.279 1.93 1.497.303-.014.316-.14.313-.235.573-.634.413-.648.105-.306.028-.335-.036-.349-.085-.35-.251-.64-.647-1.082-.053-.189-.023-.232.063-.651.132-.327.229-.19.301-.076.349.017 1.385.575.252.225.434.689.317.823.239 1.27.12.277.177.292 1.649 1.604.119.198.086.234.046.275-.054 1.062.109.302.202.245.591.346 1.327.413.723.696.666.99.423.981.061.395-.014.31-.039.255-.028.097-.034.12-.583 1.049-.084.351.032.454.314 1.062.482 1.005.454.633.931.552.15.155.124.215.093.296.021.316-.071.262-.147.217-.443.316-.962.357-.172.166-.92 1.314-.541.487-.065.255.078.254.189.24.268.211.65.281.617.008 1.73-.594.266.018.201.137.099.269.023.366-.094 1.677.07.286.143.208.194.171 1.46.683 2.197.456.169.115.135.21.183.566.112.778 1.257.533.635.512.384.586.229.136.262.029.278-.053 1.127-.611 1.047.141.816.327.134.134.233.389.176.502.111.558.108.239.227.164 1.923.57.337.239.276.34.233.428.34.953.263 1.215-3.938 1.55-1.299-.203-1.085-1.147-.518-.25-.844.247-.651.427-.691.454-.617.116-4.05-2.053-1.706-.445-1.588.339-1.908 1.39-.322.5-.21 1.014-.51.647-1.221 1.058-.873 1.487-1.794 5.172-.407.746-.562.685-.088 1.016-1.225-1.424-.492-3.548-.84-1.18-.583-.045-1.365.486-.682.083-.653-.244-1.284-.851-.543-.186-1.35.055-.565-.1-.466-.327-.257-.635-.132-.771-.279-.647-.679-.275-.657-.078-2.12-.616-.605-.389-.327-.111-.326.045-.642.272-.367.016-1.024-.149-.616.411-1.801 3.085-.389.363-.557.164-.199-.064-.469-.383-.738.111-.04.036-4.964-.735-3.279.197-1.883-.816-3.569-2.598-.051-.266v-.373l-.187-.23-.602.155-.037-.566-.264-.242-.4-.016-.447.105.363-.48-.297.019-.264-.119-.389-.284-.679-.049-.242-.103-.176-.276-.143-.661-.206-.156-1.085.003-.309.075-1.261.667-.599.189h-.818l-.796-.189-2.755-1.554-2.113-.825Z"/><path stroke="#fff" stroke-linecap="round" stroke-linejoin="round" d="m223.107 95.38-1.313 1.028-4.777 1.862-1.045.99-.855 1.39-.664 1.652-.451 1.777-.129 1.451.006.326.046 2.416-.235 1.187-.738 1.247-1.045.974-1.178.541-1.904-.148-.858.134-.745.48-.47.942-.22.8-.275 1.669-.29.737-.653.638-.678.039-.749-.128-.873.15-.572.476-1.226 2.108-.627.52-2.882 1.135-.263-1.215-.34-.953-.233-.428-.276-.341-.337-.238-1.923-.571-.228-.164-.107-.238-.111-.559-.176-.502-.233-.388-.134-.134-.816-.327-1.047-.141-1.127.611-.278.053-.262-.029-.229-.136-.384-.587-.635-.511-1.257-.533-.113-.778-.182-.566-.135-.21-.169-.115-2.197-.456-1.46-.683-.194-.172-.143-.207-.07-.286.094-1.677-.023-.366-.099-.27-.201-.136-.266-.018-1.73.594-.617-.009-.65-.28-.268-.211-.189-.24-.078-.255.065-.254.541-.487.92-1.314.172-.167.962-.356.443-.317.146-.216.072-.263-.022-.315-.092-.296-.124-.215-.15-.155-.931-.552-.454-.633-.482-1.005-.314-1.062-.032-.454.083-.351.584-1.05.034-.12.036.088.158.28.113.133.138.092.157.028.178-.061.149-.173.09-.266.156-.998.096-.28.16-.194.247-.073 2.313-.057.143.028.116-.008.159-.08.116-.128.17-.266.193-.245 1.213-1.169.121-.153.317-.654-.306-.383-.287-.929.056-.93.146-.873.667.086.221.026.547.205.875.749.75.409.314.061 1.524.687.365.072.209-.074.22-.193.176-.301.165-.362.171-.304.148-.185.182-.15.462-.263.612-.254.276-.069 2.527.051.254-.038.216-.088.154-.153.116-.166.071-.225v-.243l-.088-.348-.232-.55-.05-.22.065-.158.133-.113.431-.17.401-.052.54.023 3.118.63.956-.425-.1-.587-.012-.533.036-.268.076-.246.112-.186.129-.12.44-.244.143-.14.13-.215.228-.657.146-.245.169-.159.184-.077.188-.001.188.071.178.139.333.385.205.106.438.041.516-.128.532-1.43 1.565.025.142.084.124.149.099.23.147.674.139.272.197.198.249.13.298.063 5.536-.547.333.137 1.069.759.24.089 2.696-.044.61.233.178.197.74 1.583.238.27.61.386.22.253.155.307.106.347.282 1.556.128.328.172.23.196.148.203.084.392.01-.066 1.922-.836.658Zm-69.911-14.548-.078.605-.166.632-.442 1.088-.006.285.091.238.977.97.124.265.078.314.029.338-.015.336-.06.306-.101.252-.141.171-1.062.19-.163.122-.097.181-.014.254.206.729.079 2.482.071.391.669 2.091.043.375-.038.328-.141.265-3.096 1.89-.448.451-.373.605-.131.347-.079.372-.021.337.028.26.061.204.251.457.058.166.023.203-.041.185-.109.117-.749.3-.172.163-.127.252-.165.663-.051.683.036.307.087.261.146.2.443.225.185.153.131.196.07.232.001.261-.075.281-.158.297-.497.598-.149.279-.067.264-.004.253.048.243.286.695.063.237-.001.251-.058.261-.246.53-.775.949-2.497.804-.145.131-.734 1.093-.296.241-.368.13-2.448-.403-.158.042-.632.474-.22.089-1.064.045-.425-.12-.185-.147-.171-.229-.156-.324-.184-.247-.234-.022-.263.144-.917 1.137-.147-.044-.335-.006-.187.07-.173.151-.138.256-.181.757-.174.233-.231.118-1.23-.118-.998.455-2.567 2.33-.22.03-.207-.069-1.065-.926-.248-.09-.241.014-.225.09-.372.294-.246.299-.112.233-.287.424-.186.152-.201.043-.207-.117-.67-1.06-.26-.227-.259-.134-.242-.041-.21.054-.162.149-.1.246-.033-.19-.176-.278-.16-.153-.17-.108-.414-.09-.562-.044-.247-.056-.22-.153-.133-.24-.153-.366-.11-.132-.122-.051h-.112l-.066-.023-.047-.137-.029-.22.076-.432.066-.21.151-.214 1.155-1.364.176-.36.077-.264.039-.387.039-.237.082-.216.094-.092.187-.035.783-.051.242-.06.182-.096.148-.115.093-.128.006-.145-.066-.193-.225-.299-1.686-1.663-.132-.089-.121-.008-.149.033-1.377.551-.506.036-1.675-.306-.16.007-.594.107-.165-.034-.132-.076-1.686-1.601-.176-.233-.115-.366-.089-.481-.071-.882-.143-.457-.198-.282-.305-.12-1.728-.202-.404-.112-.148-.098-1.866-.976-.22-.013-.198.061-.178.127-.621.944-.151.107-.155.006-1.426-.928-.936-1.246-1.02-.68-.794-.776-.572-.331-.305-.03-.31.109-.61.563-.317.104-.325-.045-.673-.41L100.968 97l-.186-.282-.101-.273-.037-.268.082-1.12-.023-.262-.066-.19-.1-.143-.587-.57-.156-.261-.09-.334.007-.383.749-2.954.029-1.001-.095-.887-.528-1.905.09-.215.204-.14 1.255-.363.244-.187.126-.243.002-.257-.089-.257-.146-.243-.506-.54.287-.121.415-.373.153-.266.099-.252.056-.184.115-.206.099-.107.683-.362.098-.117.033-.15-.076-.319-.023-.13.016-.144.061-.124.099-.093.166-.042.293.021 1.397.62.391.019.486-.062.837-.245 1.031.025.588.243 1.013-.158 2.782-1.34.088-.662-.093-.597-.181-.475-.182-.298-.2-.228-1.602-1.198-.164-.224-.061-.237.104-.394.171-.301.809-.931.297-.424.088-.22.055-.219.044-.238.078-.232.115-.192.151-.183.148-.135.044-.022.242-.077.11.006.082.029.132.102.308.184.193.04h.165l.127-.033 1.454-.863 1.235-.485 1.266-1.126.214-.122.134-.003.193.053.584.083.478-.087.302-.147.204-.185.133-.204.084-.23.135-.879.058-.23.071-.22.06-.13.11-.192.127-.187.264-.28.115-.079.369-.133.133-.15.049-.276-.011-.58.027-.453 1.538 1.018.683.806.915 1.493.376.417.206.11 2.706-.218.621.172 1.619 1.265.951.226.493.309.19.212.128.25.077.553.086.189.137.136.919.447.578.462.486.655.559 1.133.899.24.254-.129.309-.028.483.21.391.108.331-.004.346-.218.547-.62.171-.096.396-.144.165-.124.127-.216.17-.44.083-.142.148-.136.215.003.241.099.498.34.479.241.528.187.817.174.396.218.253.256.104.28.115.242.265.19.387.087.765-.075.913.043.717.215 1.046.526 1.333.885.463.39.319.398.225.407.25.36.38.272 1.249.456 1.455.938.694.214Z"/><path stroke="#fff" stroke-linecap="round" stroke-linejoin="round" d="m121.001 65.593-.027.453.011.58-.049.276-.133.15-.369.133-.115.079-.264.28-.127.187-.11.191-.06.13-.072.221-.057.23-.135.879-.085.23-.132.204-.204.185-.303.147-.478.087-.583-.083-.193-.053-.134.003-.214.121-1.266 1.127-1.235.485-1.454.863-.127.033-.165-.001-.193-.04-.308-.184-.132-.102-.082-.028-.11-.006-.242.076-.044.023-.149.135-.15.182-.116.193-.077.232-.044.238-.055.219-.088.22-.297.423-.809.931-.171.301-.104.395.061.237.164.224 1.601 1.198.201.228.181.297.181.476.094.597-.088.661-2.782 1.34-1.013.159-.588-.243-1.031-.025-.837.245-.486.062-.391-.02-1.397-.62-.293-.02-.166.042-.099.093-.061.124-.016.144.022.13.077.319-.033.15-.099.117-.682.362-.099.107-.115.206-.056.183-.099.253-.154.266-.414.372-.287.122-.231.033-.165-.065-.159-.1-.166-.148-.181-.2-.148-.223-.11-.243-.11-.346-.085-.178-.237-.152-.429-.152-.682.124-.358-.034-.182-.113-.016-.353-.022-.146-.121-.206-.195-.166-1.05-.322-.188-.107-.115-.12-.254-.346-.194-.206-.137-.03-.171.059-.435.374-.11.13-.148.22-.22.45-.034.155-.022.169-.088 1.43-.225.338-.498.394-1.15.246-.242.113-.519.536-.847.532-.386.113-.379.05-.844-.135-.06-.061-.017-.139.01-.152.034-.163-.435-.117-3.943.16-.666-.088-.59-.328-.474-.118-.44.02-.292.065-1.664.934-.363.042-.27-.024-.16-.056-.104-.055-.088-.068-.079-.076-.17-.25-.072-.127-.149-.176-.126-.088-.171-.065-.137-.022-.1-.04-.076-.081-.072-.143-.132-.357-.115-.12-.187-.1-.424-.11-.568-.005-.425.08-.17.055-.148.102-.64.643-.705.287-2.07.272-.942-.035-.459-.16-.66-.053-.21-.068-.434-.344-.358-.195-.27-.03-.255.044-.396.215-.23.191-.172.372-.192.629-.089.104-.115.09-1.713.535-.27.138-.192.147-.635.33-.37.041-.296-.035-.644-.37-.2-.147-.198-.073-.237-.053-.743-.027-.198-.066-.413-.287-.167-.043-.204.025-2.06 1.209-.005-.497.045-.19.067-.152.154-.476.104-.53v-.318l-.078-.38-.242-.37-.342-.418-.12-.25-.089-.328-.049-.56.033-1.352-.066-.305-.137-.27-.314-.369-.237-.168-.176-.087-.16-.054-.177-.122-.143-.197-.083-.421.033-.195.094-.141.209-.18.062-.145-.022-.134-.088-.143-.458-.28-.006-.073.215-.18.286-.168.057-.16-.046-.196-.54-.486-.143-.226.094-.259.193-.259.42-.406.4-.253.447-.186 1.04-.258.272-.136.274-.255.88-.986.116-.24-.005-.168-.088-.187-.253-.147-.347-.139-.088-.079-.05-.142.011-.325.061-.277.352-1.213.022-.276-.038-.234-.083-.326-.022-.193v-.153l.447-1.12.038-.15.033-.213.01-.246-.021-.475.01-.237.078-.183.077-.08.105-.027.343-.034.193-.059.148-.069.088-.057.038-.097.017-.146-.038-.268-.347-1.175-.06-.278-.012-.233.022-.238.055-.194-.149-.263-.314-.333-1.862-.95-.077-.248-.034-.215-.148-.201-.226-.145-1.183-.361-.2-.111-.242-.208-.93-1.024-.308-.205-.385-.177-.669-.188-.351-.026-.287.024-.479.113-.495.047-.635-.08-.314-.196-1.723-1.662-.617-.3-.585-.136-.468-.182-.204-.006-.182.057-.72.402-.386.096-.177.01-.198-.026-.177-.074-.132-.17-.005-.238.149-.396.143-.29.104-.27.017-.297-.017-.239-.424-1.103.369-.528.447-.23.55-.152.353-.18.91-.912.412-.28.342-.428.34-.818.474-.752.198-.222.414-.238 2.077-.861 1.519-.99.332-.348.12-.104.26-.157.302-.1.39.006.221.057.22.109.148.048h.176l.624-.166 3.383-1.761.303-.026.286.123.231.172.27.1.247-.04.396-.313.204-.21.222-.304.215-.244 2.103-1.32.336-.134.48.032.296-.029.275-.111.211-.327.072-.206.01-.186-.045-.352.007-.235.039-.307.082-.24.149-.238.275-.129.43-.1 1.482-.05.869.171.833.303.715.089 2.797-.479 1.158.433.181-.043.259-.127.766-.64.297-.193.276-.08 1.001-.083.624.043.276-.059.28-.153.28-.421.122-.279.076-.232.062-.129.17-.256.033-.135v-.206l-.05-.186-.132-.395-.043-.18.005-.189.038-.356-.016-.218-.056-.212-.164-.491-.05-.225.034-.22.131-.11.287.052.47.215.186.05.188.017.209-.09.308-.18 1.034-.864.289-.153.225-.167.055-.11.055-.14.121-.43.044-.453v-.34l.039-.255.05-.191.104-.216.132-.198.242-.17.385-.112 1.582-.038.673.11.544-.038.248.037.16.081.071.136.066.163.028.135.021.16.017.18.044.157.083.13.099.072.308.041.618-.053 3.183-.83 1.438-.96 1.3-.617.314-.239.418-.414.27-.187.59-.32.297-.265.254-.314.374-.745.142-.218.227-.254.731-.62.206-.255.413-.67.132-.161.171-.08.203.01.347.145.291.008.403-.184.259-.066.248.037.341.285.292.139.849-.06.182.051.187.127.676.804.215.204.264.098.239.052.919-.244.313 1.635.374.688 1.262 1.134.072.212-.011.208-.11.197-.115.176-.029.03-.121.288-.021.44.093.332.242.44.116.257.071.24.325 2.245.028.545-.056.456-.121.313-.302.556-.308.419-.094.268-.116.446-.05.817.05.367.077.207.094.068 1.757.757.221.146.22.212.302.491.132.437.099.636.122.294.192.212.204.08.258.024.25-.02.655-.146.324.025.971.232 1.453-.188.258.018.239.101.291.267.16.322.105.313.131.947.006.75.082.454.154.589.545 1.572.072.308-.023.137-.044.126-.043.109-.149.22-.578.6-.055.165-.011.286.088.174.099.128.566.394.272.269.341.412.467.695.139.345.021.228-.104.155-.584.566-.082.163-.041.184v.29l.041.279.132.623.011.191-.016.194-.066.567-.316-.014-.722.182-.657.319-.172.268.407.652.258.262.831.538 1.207.393.248.162 1.295 1.246.286.205.468.134.247.127.259.213.332.396.049.271-.077.276-.094.197-.043.161-.022.238-.023 1.1-.04.3-.082.321-.177.522-.143.566-.047.439Zm-31.836-6.57 1.29-.064.792-.202.21-.395.043-.123.011-.139-.01-.12-.066-.179-.078-.166-.071-.197-.027-.141.049-.493-.022-.18-.038-.153-.166-.333-.038-.107.006-.09.044-.11.11-.159.987-.973.297-.393.082-.2.017-.175-.05-.277-.154-.265-.203-.173-.745-.242-.243-.135-.12-.112-.127-.167-.121-.24-.237-.34-.132-.112-.133-.077-.832-.22-.264-.13-.154-.23-.122-.354-.153-.21-.441-.316-.566-.594-.185-.134-.225-.094-.385-.075-1.752.203-4.67 1.36-.148.105-.083.148-.027.183.032.214.056.197.016.168-.05.137-.142.164-.199.114-.203.05-.177-.033-.882-.36-.209-.027-.214.026-1.68.618-.672.392-.082.091-.04.086-.01.074-.007.086.057.102.11.129.654.397.204.18.094.104.055.11-.016.128-.045.13-.099.221-.049.14-.033.135v.15l.039.126.11.164.875 1.095.095.16.16.35.187.658.076.19.078.144.088.128.957 1.106.094.213.038.196-.021.384-.022.168-.023.37.034.318.049.088.062.063.092.068.117.05.39.067 1.489-.609 2.55-.452 1.586-.505.214-.123.523-.492.572-.424.347-.102.238-.035.093.011.072.032.105.062.5.134.617.063Z"/><path stroke="#fff" stroke-linecap="round" stroke-linejoin="round" d="m89.164 59.02-.616-.062-.5-.134-.105-.062-.072-.031-.093-.012-.238.035-.347.102-.573.424-.522.492-.215.123-1.586.505-2.55.452-1.487.61-.391-.068-.117-.05-.092-.068-.063-.063-.048-.087-.034-.319.023-.37.022-.167.021-.384-.038-.197-.094-.213-.957-1.106-.089-.128-.077-.143-.076-.191-.188-.658-.16-.35-.094-.16-.876-1.095-.11-.164-.038-.126v-.15l.033-.134.049-.14.099-.221.044-.131.017-.128-.055-.11-.094-.104-.204-.18-.654-.397-.11-.129-.057-.102.007-.086.01-.074.04-.086.081-.09.672-.393 1.68-.618.215-.026.21.026.881.361.177.034.203-.05.198-.115.143-.163.05-.138-.016-.168-.056-.197-.032-.214.027-.183.082-.148.149-.106 4.67-1.359 1.752-.202.385.074.225.094.184.135.567.593.44.317.154.209.122.354.154.23.264.13.832.22.133.077.132.112.236.34.122.24.126.167.121.112.243.135.745.242.203.173.154.265.05.277-.017.175-.082.2-.297.393-.988.973-.11.158-.043.112-.006.09.038.106.166.333.038.153.022.18-.05.493.028.14.071.198.078.166.065.178.011.121-.01.14-.045.122-.209.395-.792.202-1.29.063Z"/></svg>